# xmcd
# 
# Track frame offsets:
#     150
#     13408
#     35480
#     78551
#     91989
#     95469
#     106774
#     119438
#     141435
#     157531
#     180087
#     192751
#     204063
#     221283
#     240140
#     260993
#     275338
#     283023
#     305042
#     320598
#     340997
# 
# Disc length: 4679
# 
# Revision: 12
# Processed by: cddbd v1.5.2PL0 Copyright (c) Steve Scherf et al.
# Submitted via: fre:ac v1.0.31
# 
DISCID=1f124515
DTITLE=80's - Left Of The Dial Disc 4
DYEAR=2004
DGENRE=Rock/Pop
TTITLE0=Pixies - Monkey Gone To Heaven
TTITLE1=The The - Uncertain Smile [7'' Version]
TTITLE2=Bauhaus - Bela Lugosi's Dead
TTITLE3=Siouxsie and The Banshees - Christine
TTITLE4=Minor Threat - Straight Edge
TTITLE5=The Lyres - I Want To Help You Ann
TTITLE6=Beat Happening - Our Secret
TTITLE7=Jane's Addiction - Jane Says
TTITLE8=Julian Cope - World Shut Your Mouth
TTITLE9=Kate Bush - Running Up That Hill
TTITLE10=Gun Club - Sex Beat
TTITLE11=Camper Van Beethoven - Take The Skinheads Bowling
TTITLE12=Suicidal Tendencies - Institutionalized
TTITLE13=Cocteau Twins - Pearly-Dewdrops' Drops
TTITLE14=Happy Mondays - 24 Hour Party People
TTITLE15=Hoodoo Gurus - I Want You Back
TTITLE16=Descendents - Suburban Home
TTITLE17=The Pogues - A Pair Of Brown Eyes
TTITLE18=The Three O'Clock - Jet Fighter
TTITLE19=Butthole Surfers - Moving To Florida
TTITLE20=Billy Bragg - A New England
EXTD=
EXTT0=
EXTT1=
EXTT2=
EXTT3=
EXTT4=
EXTT5=
EXTT6=
EXTT7=
EXTT8=
EXTT9=
EXTT10=
EXTT11=
EXTT12=
EXTT13=
EXTT14=
EXTT15=
EXTT16=
EXTT17=
EXTT18=
EXTT19=
EXTT20=
PLAYORDER=
